<svg width="158" height="357" viewBox="0 0 158 357" fill="none" xmlns="http://www.w3.org/2000/svg">
<path fill-rule="evenodd" clip-rule="evenodd" d="M-10 -10H158V209H-10V-10Z" fill="#4AF6CD"/>
<path d="M50.22 179.36C50.22 176.2 50.68 173.42 51.6 171.02C52.52 168.58 53.9 166.4 55.74 164.48L61.62 169.46C59.34 172.34 58.2 175.36 58.2 178.52C58.2 180.16 58.52 181.42 59.16 182.3C59.76 183.14 60.62 183.56 61.74 183.56C62.54 183.56 63.2 183.34 63.72 182.9C64.24 182.46 64.74 181.72 65.22 180.68C65.7 179.64 66.3 178 67.02 175.76C68.38 171.48 70.1 168.36 72.18 166.4C74.22 164.4 77.06 163.4 80.7 163.4C83.34 163.4 85.68 164.08 87.72 165.44C89.72 166.8 91.28 168.78 92.4 171.38C93.52 173.94 94.08 176.96 94.08 180.44C94.08 187.08 92.06 192.5 88.02 196.7L81.96 191.24C84.68 187.92 86.04 184.46 86.04 180.86C86.04 178.98 85.64 177.52 84.84 176.48C84 175.44 82.9 174.92 81.54 174.92C80.58 174.92 79.8 175.12 79.2 175.52C78.56 175.92 78 176.64 77.52 177.68C77 178.68 76.44 180.16 75.84 182.12C74.36 186.84 72.58 190.16 70.5 192.08C68.42 194 65.8 194.96 62.64 194.96C60.16 194.96 57.98 194.3 56.1 192.98C54.22 191.62 52.78 189.76 51.78 187.4C50.74 185 50.22 182.32 50.22 179.36ZM93 136.815H75.66V147.855H93V158.955H51.3V147.855H67.08V136.815H51.3V125.715H93V136.815ZM50.22 101.827C50.22 95.7873 52.14 91.0873 55.98 87.7273C59.82 84.3673 65.2 82.6873 72.12 82.6873C76.64 82.6873 80.56 83.4473 83.88 84.9673C87.16 86.4473 89.68 88.6273 91.44 91.5073C93.2 94.3873 94.08 97.8273 94.08 101.827C94.08 107.867 92.16 112.567 88.32 115.927C84.48 119.247 79.08 120.907 72.12 120.907C67.6 120.907 63.7 120.167 60.42 118.687C57.14 117.167 54.62 114.987 52.86 112.147C51.1 109.267 50.22 105.827 50.22 101.827ZM58.2 101.827C58.2 104.427 59.28 106.347 61.44 107.587C63.6 108.787 67.16 109.387 72.12 109.387C77.08 109.387 80.66 108.767 82.86 107.527C85.02 106.287 86.1 104.387 86.1 101.827C86.1 99.1873 85.02 97.2673 82.86 96.0673C80.7 94.8673 77.12 94.2673 72.12 94.2673C67.16 94.2673 63.6 94.8673 61.44 96.0673C59.28 97.2673 58.2 99.1873 58.2 101.827ZM77.64 63.7016V66.7616H93V77.8616H51.3V63.4016C51.3 57.5216 52.36 53.1416 54.48 50.2616C56.6 47.3416 59.86 45.8816 64.26 45.8816C66.9 45.8816 69.1 46.5016 70.86 47.7416C72.62 48.9416 74.2 50.8816 75.6 53.5616L93 43.1816V55.5416L77.64 63.7016ZM70.08 66.7616V63.0416C70.08 59.2016 68.14 57.2816 64.26 57.2816C62.46 57.2816 61.14 57.8216 60.3 58.9016C59.46 59.9416 59.04 61.5216 59.04 63.6416V66.7616H70.08ZM51.3 14.1945L59.16 15.3345V29.5545H68.04V17.1345H75.66L75.66 29.5545H85.14L85.14 14.3745H93L93 40.6545H51.3L51.3 14.1945Z" fill="white"/>
<path d="M51.3 324.06L59.76 325.2V335.04H93V346.14H59.76V356.58H51.3V324.06ZM77.64 306.787V309.847H93V320.947H51.3V306.487C51.3 300.607 52.36 296.227 54.48 293.348C56.6 290.427 59.86 288.967 64.26 288.967C66.9 288.967 69.1 289.587 70.86 290.827C72.62 292.027 74.2 293.967 75.6 296.647L93 286.267V298.627L77.64 306.787ZM70.08 309.847V306.127C70.08 302.287 68.14 300.367 64.26 300.367C62.46 300.367 61.14 300.907 60.3 301.987C59.46 303.027 59.04 304.607 59.04 306.727V309.847H70.08ZM51.3 251.868L93 262.908V277.068L51.3 288.648L51.3 276.948L84.9 269.808L51.3 263.208V251.868ZM51.3 238.656H84.36V222.636L93 223.836V249.756H51.3V238.656Z" fill="white"/>
<rect x="72" y="217" width="20" height="1" transform="rotate(-90 72 217)" fill="white"/>
</svg>
