<svg width="169" height="362" viewBox="0 0 169 362" fill="none" xmlns="http://www.w3.org/2000/svg">
<path fill-rule="evenodd" clip-rule="evenodd" d="M-10 -10H169V209H-10V-10Z" fill="#0075FF" fill-opacity="0.63"/>
<path d="M60.22 179.36C60.22 176.2 60.68 173.42 61.6 171.02C62.52 168.58 63.9 166.4 65.74 164.48L71.62 169.46C69.34 172.34 68.2 175.36 68.2 178.52C68.2 180.16 68.52 181.42 69.16 182.3C69.76 183.14 70.62 183.56 71.74 183.56C72.54 183.56 73.2 183.34 73.72 182.9C74.24 182.46 74.74 181.72 75.22 180.68C75.7 179.64 76.3 178 77.02 175.76C78.38 171.48 80.1 168.36 82.18 166.4C84.22 164.4 87.06 163.4 90.7 163.4C93.34 163.4 95.68 164.08 97.72 165.44C99.72 166.8 101.28 168.78 102.4 171.38C103.52 173.94 104.08 176.96 104.08 180.44C104.08 187.08 102.06 192.5 98.02 196.7L91.96 191.24C94.68 187.92 96.04 184.46 96.04 180.86C96.04 178.98 95.64 177.52 94.84 176.48C94 175.44 92.9 174.92 91.54 174.92C90.58 174.92 89.8 175.12 89.2 175.52C88.56 175.92 88 176.64 87.52 177.68C87 178.68 86.44 180.16 85.84 182.12C84.36 186.84 82.58 190.16 80.5 192.08C78.42 194 75.8 194.96 72.64 194.96C70.16 194.96 67.98 194.3 66.1 192.98C64.22 191.62 62.78 189.76 61.78 187.4C60.74 185 60.22 182.32 60.22 179.36ZM103 136.815H85.66V147.855H103V158.955H61.3V147.855H77.08V136.815H61.3V125.715H103V136.815ZM60.22 101.827C60.22 95.7873 62.14 91.0873 65.98 87.7273C69.82 84.3673 75.2 82.6873 82.12 82.6873C86.64 82.6873 90.56 83.4473 93.88 84.9673C97.16 86.4473 99.68 88.6273 101.44 91.5073C103.2 94.3873 104.08 97.8273 104.08 101.827C104.08 107.867 102.16 112.567 98.32 115.927C94.48 119.247 89.08 120.907 82.12 120.907C77.6 120.907 73.7 120.167 70.42 118.687C67.14 117.167 64.62 114.987 62.86 112.147C61.1 109.267 60.22 105.827 60.22 101.827ZM68.2 101.827C68.2 104.427 69.28 106.347 71.44 107.587C73.6 108.787 77.16 109.387 82.12 109.387C87.08 109.387 90.66 108.767 92.86 107.527C95.02 106.287 96.1 104.387 96.1 101.827C96.1 99.1873 95.02 97.2673 92.86 96.0673C90.7 94.8673 87.12 94.2673 82.12 94.2673C77.16 94.2673 73.6 94.8673 71.44 96.0673C69.28 97.2673 68.2 99.1873 68.2 101.827ZM87.64 63.7016V66.7616H103V77.8616H61.3V63.4016C61.3 57.5216 62.36 53.1416 64.48 50.2616C66.6 47.3416 69.86 45.8816 74.26 45.8816C76.9 45.8816 79.1 46.5016 80.86 47.7416C82.62 48.9416 84.2 50.8816 85.6 53.5616L103 43.1816V55.5416L87.64 63.7016ZM80.08 66.7616V63.0416C80.08 59.2016 78.14 57.2816 74.26 57.2816C72.46 57.2816 71.14 57.8216 70.3 58.9016C69.46 59.9416 69.04 61.5216 69.04 63.6416V66.7616H80.08ZM61.3 14.1945L69.16 15.3345V29.5545H78.04V17.1345H85.66L85.66 29.5545H95.14L95.14 14.3745H103L103 40.6545H61.3L61.3 14.1945Z" fill="white"/>
<path d="M61.3 329.06L69.76 330.2V340.04H103V351.14H69.76V361.58H61.3V329.06ZM87.64 311.787V314.847H103V325.947H61.3V311.487C61.3 305.607 62.36 301.227 64.48 298.348C66.6 295.427 69.86 293.967 74.26 293.967C76.9 293.967 79.1 294.587 80.86 295.827C82.62 297.027 84.2 298.967 85.6 301.647L103 291.267V303.627L87.64 311.787ZM80.08 314.847V311.127C80.08 307.287 78.14 305.367 74.26 305.367C72.46 305.367 71.14 305.907 70.3 306.987C69.46 308.027 69.04 309.607 69.04 311.727V314.847H80.08ZM61.3 256.868L103 267.908V282.068L61.3 293.648L61.3 281.948L94.9 274.808L61.3 268.208V256.868ZM61.3 243.656H94.36V227.636L103 228.836V254.756H61.3V243.656Z" fill="white"/>
<rect x="82" y="217" width="20" height="1" transform="rotate(-90 82 217)" fill="white"/>
</svg>
