<svg width="1011" height="496" viewBox="0 0 1011 496" fill="none" xmlns="http://www.w3.org/2000/svg">
<g opacity="0.29827">
<path d="M1008.08 163.448L443.182 -356.858V-747.19L28.1096 -770C24.9043 -762.456 4.36709 -740.714 7.57176 -728.596C11.43 -714.102 30.8387 -718.735 36.4776 -709.409C43.0661 -698.42 31.7291 -653.749 28.3457 -640.86C21.8759 -616.445 7.09676 -596.665 2.82235 -572.25C-4.35982 -531.263 10.1824 -534.53 37.7242 -508.927C84.141 -465.742 46.9244 -420.952 58.6176 -370.223C68.1146 -328.878 109.605 -307.554 124.8 -266.211C136.553 -234.37 152.697 -226.233 177.746 -202.947C177.153 -217.084 164.51 -258.785 188.253 -255.102C211.817 -251.478 202.736 -216.669 207.247 -202.115C211.045 -189.997 237.933 -165.761 215.616 -154.593C208.196 -150.91 187.066 -165.582 178.577 -169.503C184.572 -150.791 180.774 -131.367 190.271 -113.487C201.608 -92.162 213.835 -100.359 228.853 -88.7754C244.344 -76.8355 242.683 -63.1137 235.797 -45.0554C228.615 -26.2247 221.196 -29.1352 232.592 -6.44342C240.843 9.95119 254.85 30.7421 266.9 43.2164C273.904 50.4634 281.502 52.1267 288.506 61.3932C294.323 69.1155 292.067 79.2142 299.012 86.1638C310.883 98.1037 331.006 98.282 340.384 113.904C350.831 131.309 338.96 144.437 369.706 142.833C371.309 177.643 377.897 209.185 377.541 243.994C394.695 250.825 422.414 242.687 440.399 239.063C458.266 263.18 481.355 246.429 501.774 259.558C510.678 265.26 508.837 279.517 514.239 284.506C525.339 294.723 533.529 288.308 547.301 291.872C557.51 294.486 565.404 301.97 575.138 304.703C584.338 307.257 599.475 301.258 606.301 309.396C614.492 319.138 600.78 336.958 613.127 344.799C623.395 351.333 638.115 335.77 648.088 338.027C659.721 340.7 693.079 371.174 701.271 381.212C710.59 392.677 719.969 414.062 725.25 428.793C733.501 451.841 732.373 463.127 749.408 479.998C760.27 490.75 749.942 491.522 767.63 494.67C779.204 496.749 794.518 488.374 806.212 487.067C830.549 484.394 855.122 489.027 879.102 484.453C901.421 480.176 922.729 473.166 945.64 469.899C965.465 467.048 1000.37 469.246 1017.94 459.801C1036.99 449.643 1038.71 426.654 1011.17 430.932C1008.97 416.26 1018.77 396.003 1007.85 385.847C1023.04 365.056 1028.56 350.384 1030.93 324.959C1032 313.792 1032.48 301.436 1038 292.05C1043.4 282.783 1058.59 277.259 1061.56 269.299C1066.13 256.943 1058.83 251.419 1053.25 244.528C1049.69 240.073 1039.54 242.212 1036.63 238.291C1031.23 231.103 1036.57 223.678 1033.6 216.431C1024.94 195.462 1014.61 187.205 1008.08 163.444C1008.26 167.424 1008.44 171.463 1008.2 175.384" stroke="white" stroke-width="2" stroke-linecap="round" stroke-linejoin="round"/>
</g>
<path d="M729.114 83.9394C720.546 107.321 740.614 115.526 756.675 130.807C761.434 135.336 761.888 142.817 756.879 147.342C746.107 157.074 705.264 142.917 707.854 155.745C710.53 168.994 745.061 187.531 746.618 188.799C760.284 199.932 764.735 228.174 757.208 243.658C751.852 254.676 716.342 250.962 705.172 247.293C632.024 223.266 664.985 226.131 582.817 218.67C576.527 218.099 569.935 217.806 563.894 219.65C557.671 221.549 557.869 229.339 559.957 233.55C566.876 247.506 597.849 271.178 589.514 289.523C586.956 295.152 580.963 298.707 578.264 304.27C576.151 308.627 576.385 313.772 575.445 318.523" stroke="white" stroke-width="2"/>
<path fill-rule="evenodd" clip-rule="evenodd" d="M573.5 326C577.09 326 580 323.09 580 319.5C580 315.91 577.09 313 573.5 313C569.91 313 567 315.91 567 319.5C567 323.09 569.91 326 573.5 326Z" fill="#4A99F6"/>
<path fill-rule="evenodd" clip-rule="evenodd" d="M661 363C662.657 363 664 361.657 664 360C664 358.343 662.657 357 661 357C659.343 357 658 358.343 658 360C658 361.657 659.343 363 661 363Z" fill="#4A99F6"/>
<path fill-rule="evenodd" clip-rule="evenodd" d="M725 471C726.657 471 728 469.657 728 468C728 466.343 726.657 465 725 465C723.343 465 722 466.343 722 468C722 469.657 723.343 471 725 471Z" fill="#4A99F6"/>
<path fill-rule="evenodd" clip-rule="evenodd" d="M365 228C366.657 228 368 226.657 368 225C368 223.343 366.657 222 365 222C363.343 222 362 223.343 362 225C362 226.657 363.343 228 365 228Z" fill="#4A99F6"/>
<path fill-rule="evenodd" clip-rule="evenodd" d="M729.5 91C733.09 91 736 88.0899 736 84.5C736 80.9101 733.09 78 729.5 78C725.91 78 723 80.9101 723 84.5C723 88.0899 725.91 91 729.5 91Z" fill="#4A99F6"/>
<path d="M368.038 310.976V312.208L362.582 320.704H368.038L367.862 322H360.886V320.784L366.39 312.256H361.462V310.976H368.038ZM375.731 320.032C375.731 320.373 375.79 320.629 375.907 320.8C376.025 320.96 376.201 321.083 376.435 321.168L376.099 322.192C375.662 322.139 375.31 322.016 375.043 321.824C374.777 321.632 374.579 321.333 374.451 320.928C373.886 321.771 373.049 322.192 371.939 322.192C371.107 322.192 370.451 321.957 369.971 321.488C369.491 321.019 369.251 320.405 369.251 319.648C369.251 318.752 369.571 318.064 370.211 317.584C370.862 317.104 371.779 316.864 372.963 316.864H374.259V316.24C374.259 315.643 374.115 315.216 373.827 314.96C373.539 314.704 373.097 314.576 372.499 314.576C371.881 314.576 371.123 314.725 370.227 315.024L369.859 313.952C370.905 313.568 371.875 313.376 372.771 313.376C373.763 313.376 374.505 313.621 374.995 314.112C375.486 314.592 375.731 315.28 375.731 316.176V320.032ZM372.275 321.088C373.118 321.088 373.779 320.651 374.259 319.776V317.84H373.155C371.598 317.84 370.819 318.416 370.819 319.568C370.819 320.069 370.942 320.448 371.187 320.704C371.433 320.96 371.795 321.088 372.275 321.088ZM381.826 313.376C382.328 313.376 382.786 313.451 383.202 313.6C383.618 313.739 384.018 313.968 384.402 314.288L383.698 315.216C383.4 315.003 383.106 314.848 382.818 314.752C382.541 314.645 382.232 314.592 381.89 314.592C381.208 314.592 380.674 314.864 380.29 315.408C379.917 315.952 379.73 316.757 379.73 317.824C379.73 318.891 379.917 319.68 380.29 320.192C380.664 320.693 381.197 320.944 381.89 320.944C382.221 320.944 382.525 320.896 382.802 320.8C383.08 320.693 383.389 320.528 383.73 320.304L384.402 321.264C383.634 321.883 382.776 322.192 381.826 322.192C380.685 322.192 379.784 321.808 379.122 321.04C378.472 320.272 378.146 319.211 378.146 317.856C378.146 316.96 378.296 316.176 378.594 315.504C378.893 314.832 379.314 314.309 379.858 313.936C380.413 313.563 381.069 313.376 381.826 313.376ZM390.363 313.376C391.131 313.376 391.728 313.605 392.155 314.064C392.592 314.523 392.811 315.152 392.811 315.952V322H391.339V316.16C391.339 315.563 391.222 315.141 390.987 314.896C390.763 314.651 390.432 314.528 389.995 314.528C389.558 314.528 389.168 314.656 388.827 314.912C388.486 315.168 388.166 315.531 387.867 316V322H386.395V310.192L387.867 310.032V314.736C388.528 313.829 389.36 313.376 390.363 313.376ZM398.938 313.376C400.122 313.376 401.039 313.771 401.69 314.56C402.351 315.349 402.682 316.421 402.682 317.776C402.682 318.651 402.533 319.424 402.234 320.096C401.935 320.757 401.503 321.275 400.938 321.648C400.373 322.011 399.701 322.192 398.922 322.192C397.738 322.192 396.815 321.797 396.154 321.008C395.493 320.219 395.162 319.147 395.162 317.792C395.162 316.917 395.311 316.149 395.61 315.488C395.909 314.816 396.341 314.299 396.906 313.936C397.471 313.563 398.149 313.376 398.938 313.376ZM398.938 314.56C397.477 314.56 396.746 315.637 396.746 317.792C396.746 319.936 397.471 321.008 398.922 321.008C400.373 321.008 401.098 319.931 401.098 317.776C401.098 315.632 400.378 314.56 398.938 314.56ZM411.642 310.176V322H410.346L410.202 320.832C409.924 321.259 409.578 321.595 409.162 321.84C408.746 322.075 408.282 322.192 407.77 322.192C406.767 322.192 405.983 321.797 405.418 321.008C404.863 320.219 404.586 319.157 404.586 317.824C404.586 316.96 404.719 316.192 404.986 315.52C405.252 314.848 405.636 314.325 406.138 313.952C406.639 313.568 407.226 313.376 407.898 313.376C408.762 313.376 409.519 313.723 410.17 314.416V310L411.642 310.176ZM408.09 321.024C408.538 321.024 408.922 320.923 409.242 320.72C409.562 320.507 409.871 320.192 410.17 319.776V315.648C409.892 315.285 409.594 315.013 409.274 314.832C408.964 314.64 408.612 314.544 408.218 314.544C407.567 314.544 407.06 314.816 406.698 315.36C406.346 315.904 406.17 316.715 406.17 317.792C406.17 318.88 406.335 319.691 406.666 320.224C406.996 320.757 407.471 321.024 408.09 321.024ZM418.644 313.376C419.412 313.376 420.01 313.605 420.436 314.064C420.874 314.523 421.092 315.152 421.092 315.952V322H419.62V316.16C419.62 315.563 419.508 315.141 419.284 314.896C419.06 314.651 418.73 314.528 418.292 314.528C417.844 314.528 417.45 314.656 417.108 314.912C416.767 315.168 416.447 315.536 416.148 316.016V322H414.676V313.568H415.94L416.068 314.816C416.367 314.368 416.735 314.016 417.172 313.76C417.62 313.504 418.111 313.376 418.644 313.376ZM425.523 313.568V322H424.051V313.568H425.523ZM424.771 309.52C425.081 309.52 425.331 309.616 425.523 309.808C425.715 310 425.811 310.24 425.811 310.528C425.811 310.816 425.715 311.056 425.523 311.248C425.331 311.429 425.081 311.52 424.771 311.52C424.473 311.52 424.227 311.429 424.035 311.248C423.843 311.056 423.747 310.816 423.747 310.528C423.747 310.24 423.843 310 424.035 309.808C424.227 309.616 424.473 309.52 424.771 309.52ZM437.745 316.176C438.503 316.304 439.116 316.571 439.585 316.976C440.055 317.381 440.289 318.011 440.289 318.864C440.289 320.955 438.833 322 435.921 322H432.881V310.976H435.489C436.887 310.976 437.953 311.205 438.689 311.664C439.436 312.123 439.809 312.821 439.809 313.76C439.809 314.4 439.607 314.933 439.201 315.36C438.807 315.787 438.321 316.059 437.745 316.176ZM434.401 312.176V315.648H436.065C436.705 315.648 437.228 315.493 437.633 315.184C438.049 314.875 438.257 314.437 438.257 313.872C438.257 313.232 438.039 312.789 437.601 312.544C437.175 312.299 436.524 312.176 435.649 312.176H434.401ZM435.921 320.784C436.817 320.784 437.5 320.651 437.969 320.384C438.449 320.117 438.689 319.611 438.689 318.864C438.689 318.139 438.46 317.616 438.001 317.296C437.543 316.976 436.945 316.816 436.209 316.816H434.401V320.784H435.921ZM446.2 313.376C446.498 313.376 446.776 313.408 447.032 313.472L446.76 314.912C446.504 314.848 446.258 314.816 446.024 314.816C445.501 314.816 445.08 315.008 444.76 315.392C444.44 315.776 444.189 316.373 444.008 317.184V322H442.536V313.568H443.8L443.944 315.28C444.168 314.651 444.472 314.176 444.856 313.856C445.24 313.536 445.688 313.376 446.2 313.376ZM453.495 313.568V314.688L449.095 320.768H453.543L453.367 322H447.431V320.896L451.815 314.816H447.799V313.568H453.495ZM461.794 317.536C461.794 317.781 461.784 318.032 461.762 318.288H456.386C456.45 319.216 456.685 319.899 457.09 320.336C457.496 320.773 458.018 320.992 458.658 320.992C459.064 320.992 459.437 320.933 459.778 320.816C460.12 320.699 460.477 320.512 460.85 320.256L461.49 321.136C460.594 321.84 459.613 322.192 458.546 322.192C457.373 322.192 456.456 321.808 455.794 321.04C455.144 320.272 454.818 319.216 454.818 317.872C454.818 316.997 454.957 316.224 455.234 315.552C455.522 314.869 455.928 314.336 456.45 313.952C456.984 313.568 457.608 313.376 458.322 313.376C459.442 313.376 460.301 313.744 460.898 314.48C461.496 315.216 461.794 316.235 461.794 317.536ZM460.338 317.104C460.338 316.272 460.173 315.637 459.842 315.2C459.512 314.763 459.016 314.544 458.354 314.544C457.149 314.544 456.493 315.429 456.386 317.2H460.338V317.104ZM470.945 313.952C470.625 314.059 470.273 314.128 469.889 314.16C469.505 314.192 469.036 314.208 468.481 314.208C469.473 314.656 469.969 315.365 469.969 316.336C469.969 317.179 469.681 317.867 469.105 318.4C468.529 318.933 467.745 319.2 466.753 319.2C466.369 319.2 466.012 319.147 465.681 319.04C465.553 319.125 465.452 319.243 465.377 319.392C465.302 319.531 465.265 319.675 465.265 319.824C465.265 320.283 465.633 320.512 466.369 320.512H467.713C468.278 320.512 468.78 320.613 469.217 320.816C469.654 321.019 469.99 321.296 470.225 321.648C470.47 322 470.593 322.4 470.593 322.848C470.593 323.669 470.257 324.299 469.585 324.736C468.913 325.184 467.932 325.408 466.641 325.408C465.734 325.408 465.014 325.312 464.481 325.12C463.958 324.939 463.585 324.661 463.361 324.288C463.137 323.915 463.025 323.435 463.025 322.848H464.353C464.353 323.189 464.417 323.456 464.545 323.648C464.673 323.851 464.902 324 465.233 324.096C465.564 324.203 466.033 324.256 466.641 324.256C467.526 324.256 468.156 324.144 468.529 323.92C468.913 323.707 469.105 323.381 469.105 322.944C469.105 322.549 468.956 322.251 468.657 322.048C468.358 321.845 467.942 321.744 467.409 321.744H466.081C465.366 321.744 464.822 321.595 464.449 321.296C464.086 320.987 463.905 320.603 463.905 320.144C463.905 319.867 463.985 319.6 464.145 319.344C464.305 319.088 464.534 318.859 464.833 318.656C464.342 318.4 463.98 318.085 463.745 317.712C463.521 317.328 463.409 316.864 463.409 316.32C463.409 315.755 463.548 315.248 463.825 314.8C464.113 314.352 464.502 314.005 464.993 313.76C465.494 313.504 466.049 313.376 466.657 313.376C467.318 313.387 467.873 313.365 468.321 313.312C468.769 313.248 469.137 313.168 469.425 313.072C469.724 312.965 470.086 312.816 470.513 312.624L470.945 313.952ZM466.657 314.432C466.102 314.432 465.67 314.608 465.361 314.96C465.062 315.301 464.913 315.755 464.913 316.32C464.913 316.896 465.068 317.36 465.377 317.712C465.686 318.053 466.124 318.224 466.689 318.224C467.265 318.224 467.702 318.059 468.001 317.728C468.31 317.387 468.465 316.912 468.465 316.304C468.465 315.056 467.862 314.432 466.657 314.432ZM474.41 309.184V323.568H474.058V309.184H474.41ZM493.237 322H491.765L491.381 317.024C491.221 315.072 491.131 313.573 491.109 312.528L488.725 320.752H487.301L484.789 312.512C484.789 313.845 484.72 315.387 484.581 317.136L484.213 322H482.773L483.685 310.976H485.733L488.053 318.992L490.261 310.976H492.325L493.237 322ZM501.434 320.032C501.434 320.373 501.493 320.629 501.61 320.8C501.728 320.96 501.904 321.083 502.138 321.168L501.802 322.192C501.365 322.139 501.013 322.016 500.746 321.824C500.48 321.632 500.282 321.333 500.154 320.928C499.589 321.771 498.752 322.192 497.642 322.192C496.81 322.192 496.154 321.957 495.674 321.488C495.194 321.019 494.954 320.405 494.954 319.648C494.954 318.752 495.274 318.064 495.914 317.584C496.565 317.104 497.482 316.864 498.666 316.864H499.962V316.24C499.962 315.643 499.818 315.216 499.53 314.96C499.242 314.704 498.8 314.576 498.202 314.576C497.584 314.576 496.826 314.725 495.93 315.024L495.562 313.952C496.608 313.568 497.578 313.376 498.474 313.376C499.466 313.376 500.208 313.621 500.698 314.112C501.189 314.592 501.434 315.28 501.434 316.176V320.032ZM497.978 321.088C498.821 321.088 499.482 320.651 499.962 319.776V317.84H498.858C497.301 317.84 496.522 318.416 496.522 319.568C496.522 320.069 496.645 320.448 496.89 320.704C497.136 320.96 497.498 321.088 497.978 321.088ZM505.981 322.192C505.437 322.192 505.005 322.032 504.685 321.712C504.376 321.381 504.221 320.923 504.221 320.336V310.176L505.693 310V320.304C505.693 320.539 505.731 320.709 505.805 320.816C505.891 320.923 506.029 320.976 506.221 320.976C506.424 320.976 506.605 320.944 506.765 320.88L507.149 321.904C506.797 322.096 506.408 322.192 505.981 322.192ZM510.461 313.568V322H508.989V313.568H510.461ZM509.709 309.52C510.018 309.52 510.269 309.616 510.461 309.808C510.653 310 510.749 310.24 510.749 310.528C510.749 310.816 510.653 311.056 510.461 311.248C510.269 311.429 510.018 311.52 509.709 311.52C509.41 311.52 509.165 311.429 508.973 311.248C508.781 311.056 508.685 310.816 508.685 310.528C508.685 310.24 508.781 310 508.973 309.808C509.165 309.616 509.41 309.52 509.709 309.52ZM517.36 313.376C518.32 313.376 519.083 313.765 519.648 314.544C520.214 315.312 520.496 316.389 520.496 317.776C520.496 318.651 520.363 319.424 520.096 320.096C519.83 320.757 519.446 321.275 518.944 321.648C518.443 322.011 517.856 322.192 517.184 322.192C516.299 322.192 515.552 321.819 514.944 321.072L514.8 322H513.504V310.176L514.976 310V314.624C515.584 313.792 516.379 313.376 517.36 313.376ZM516.832 321.024C517.483 321.024 517.99 320.763 518.352 320.24C518.726 319.707 518.912 318.885 518.912 317.776C518.912 316.635 518.742 315.813 518.4 315.312C518.059 314.8 517.574 314.544 516.944 314.544C516.198 314.544 515.542 314.981 514.976 315.856V319.888C515.2 320.24 515.472 320.517 515.792 320.72C516.123 320.923 516.47 321.024 516.832 321.024ZM529.276 322H528.012L527.9 320.688C527.58 321.211 527.212 321.595 526.796 321.84C526.38 322.075 525.874 322.192 525.276 322.192C524.54 322.192 523.964 321.968 523.548 321.52C523.132 321.072 522.924 320.437 522.924 319.616V313.568H524.396V319.456C524.396 320.032 524.498 320.443 524.7 320.688C524.903 320.923 525.234 321.04 525.692 321.04C526.514 321.04 527.218 320.555 527.804 319.584V313.568H529.276V322ZM532.701 319.968C533.021 319.968 533.288 320.075 533.501 320.288C533.714 320.501 533.821 320.763 533.821 321.072C533.821 321.403 533.725 321.781 533.533 322.208L532.461 324.656H531.405L532.045 322C531.906 321.893 531.794 321.76 531.709 321.6C531.634 321.44 531.597 321.264 531.597 321.072C531.597 320.763 531.704 320.501 531.917 320.288C532.13 320.075 532.392 319.968 532.701 319.968ZM544.331 310.784C544.992 310.784 545.547 310.869 545.995 311.04C546.454 311.211 546.918 311.488 547.387 311.872L546.555 312.848C545.883 312.304 545.174 312.032 544.427 312.032C543.51 312.032 542.768 312.384 542.203 313.088C541.648 313.792 541.371 314.923 541.371 316.48C541.371 317.995 541.648 319.115 542.203 319.84C542.758 320.555 543.494 320.912 544.411 320.912C544.88 320.912 545.291 320.832 545.643 320.672C545.995 320.512 546.368 320.288 546.763 320L547.515 320.96C547.174 321.312 546.736 321.605 546.203 321.84C545.67 322.075 545.056 322.192 544.363 322.192C543.467 322.192 542.667 321.973 541.963 321.536C541.27 321.088 540.726 320.437 540.331 319.584C539.947 318.72 539.755 317.685 539.755 316.48C539.755 315.275 539.958 314.245 540.363 313.392C540.768 312.528 541.318 311.877 542.011 311.44C542.704 311.003 543.478 310.784 544.331 310.784ZM555.3 322L554.468 319.232H550.292L549.46 322H547.924L551.46 310.976H553.38L556.9 322H555.3ZM550.66 318H554.1L552.388 312.24L550.66 318Z" fill="white"/>
<path d="M576.535 87L575.703 84.232H571.527L570.695 87H569.159L572.695 75.976H574.615L578.135 87H576.535ZM571.895 83H575.335L573.623 77.24L571.895 83ZM581.226 75V87H579.754V75.176L581.226 75ZM586.074 78.568L582.97 82.296L586.426 87H584.666L581.322 82.392L584.426 78.568H586.074ZM592.198 86.616C591.643 87 591.014 87.192 590.31 87.192C589.595 87.192 589.035 86.9893 588.63 86.584C588.235 86.168 588.038 85.5707 588.038 84.792V79.704H586.566V78.568H588.038V76.664L589.51 76.488V78.568H591.51L591.35 79.704H589.51V84.728C589.51 85.1653 589.585 85.4853 589.734 85.688C589.894 85.88 590.155 85.976 590.518 85.976C590.849 85.976 591.222 85.864 591.638 85.64L592.198 86.616ZM599.995 87H598.731L598.619 85.688C598.299 86.2107 597.931 86.5947 597.515 86.84C597.099 87.0747 596.592 87.192 595.995 87.192C595.259 87.192 594.683 86.968 594.267 86.52C593.851 86.072 593.643 85.4373 593.643 84.616V78.568H595.115V84.456C595.115 85.032 595.216 85.4427 595.419 85.688C595.622 85.9227 595.952 86.04 596.411 86.04C597.232 86.04 597.936 85.5547 598.523 84.584V78.568H599.995V87ZM608.716 85.032C608.716 85.3733 608.774 85.6293 608.892 85.8C609.009 85.96 609.185 86.0827 609.42 86.168L609.084 87.192C608.646 87.1387 608.294 87.016 608.028 86.824C607.761 86.632 607.564 86.3333 607.436 85.928C606.87 86.7707 606.033 87.192 604.924 87.192C604.092 87.192 603.436 86.9573 602.956 86.488C602.476 86.0187 602.236 85.4053 602.236 84.648C602.236 83.752 602.556 83.064 603.196 82.584C603.846 82.104 604.764 81.864 605.948 81.864H607.244V81.24C607.244 80.6427 607.1 80.216 606.812 79.96C606.524 79.704 606.081 79.576 605.484 79.576C604.865 79.576 604.108 79.7253 603.212 80.024L602.844 78.952C603.889 78.568 604.86 78.376 605.756 78.376C606.748 78.376 607.489 78.6213 607.98 79.112C608.47 79.592 608.716 80.28 608.716 81.176V85.032ZM605.26 86.088C606.102 86.088 606.764 85.6507 607.244 84.776V82.84H606.14C604.582 82.84 603.804 83.416 603.804 84.568C603.804 85.0693 603.926 85.448 604.172 85.704C604.417 85.96 604.78 86.088 605.26 86.088ZM613.263 87.192C612.719 87.192 612.287 87.032 611.967 86.712C611.657 86.3813 611.503 85.9227 611.503 85.336V75.176L612.975 75V85.304C612.975 85.5387 613.012 85.7093 613.087 85.816C613.172 85.9227 613.311 85.976 613.503 85.976C613.705 85.976 613.887 85.944 614.047 85.88L614.431 86.904C614.079 87.096 613.689 87.192 613.263 87.192ZM620.238 78.376C621.006 78.376 621.603 78.6053 622.03 79.064C622.467 79.5227 622.686 80.152 622.686 80.952V87H621.214V81.16C621.214 80.5627 621.102 80.1413 620.878 79.896C620.654 79.6507 620.323 79.528 619.886 79.528C619.438 79.528 619.043 79.656 618.702 79.912C618.361 80.168 618.041 80.536 617.742 81.016V87H616.27V78.568H617.534L617.662 79.816C617.961 79.368 618.329 79.016 618.766 78.76C619.214 78.504 619.705 78.376 620.238 78.376ZM631.325 85.032C631.325 85.3733 631.384 85.6293 631.501 85.8C631.618 85.96 631.794 86.0827 632.029 86.168L631.693 87.192C631.256 87.1387 630.904 87.016 630.637 86.824C630.37 86.632 630.173 86.3333 630.045 85.928C629.48 86.7707 628.642 87.192 627.533 87.192C626.701 87.192 626.045 86.9573 625.565 86.488C625.085 86.0187 624.845 85.4053 624.845 84.648C624.845 83.752 625.165 83.064 625.805 82.584C626.456 82.104 627.373 81.864 628.557 81.864H629.853V81.24C629.853 80.6427 629.709 80.216 629.421 79.96C629.133 79.704 628.69 79.576 628.093 79.576C627.474 79.576 626.717 79.7253 625.821 80.024L625.453 78.952C626.498 78.568 627.469 78.376 628.365 78.376C629.357 78.376 630.098 78.6213 630.589 79.112C631.08 79.592 631.325 80.28 631.325 81.176V85.032ZM627.869 86.088C628.712 86.088 629.373 85.6507 629.853 84.776V82.84H628.749C627.192 82.84 626.413 83.416 626.413 84.568C626.413 85.0693 626.536 85.448 626.781 85.704C627.026 85.96 627.389 86.088 627.869 86.088ZM640.263 87.192C639.719 87.192 639.287 87.032 638.967 86.712C638.657 86.3813 638.503 85.9227 638.503 85.336V75.176L639.975 75V85.304C639.975 85.5387 640.012 85.7093 640.087 85.816C640.172 85.9227 640.311 85.976 640.503 85.976C640.705 85.976 640.887 85.944 641.047 85.88L641.431 86.904C641.079 87.096 640.689 87.192 640.263 87.192ZM646.36 78.376C647.544 78.376 648.461 78.7707 649.112 79.56C649.773 80.3493 650.104 81.4213 650.104 82.776C650.104 83.6507 649.955 84.424 649.656 85.096C649.357 85.7573 648.925 86.2747 648.36 86.648C647.795 87.0107 647.123 87.192 646.344 87.192C645.16 87.192 644.237 86.7973 643.576 86.008C642.915 85.2187 642.584 84.1467 642.584 82.792C642.584 81.9173 642.733 81.1493 643.032 80.488C643.331 79.816 643.763 79.2987 644.328 78.936C644.893 78.5627 645.571 78.376 646.36 78.376ZM646.36 79.56C644.899 79.56 644.168 80.6373 644.168 82.792C644.168 84.936 644.893 86.008 646.344 86.008C647.795 86.008 648.52 84.9307 648.52 82.776C648.52 80.632 647.8 79.56 646.36 79.56ZM654.008 75V87H652.536V75.176L654.008 75ZM658.856 78.568L655.752 82.296L659.208 87H657.448L654.104 82.392L657.208 78.568H658.856ZM666.169 85.032C666.169 85.3733 666.227 85.6293 666.345 85.8C666.462 85.96 666.638 86.0827 666.873 86.168L666.537 87.192C666.099 87.1387 665.747 87.016 665.481 86.824C665.214 86.632 665.017 86.3333 664.889 85.928C664.323 86.7707 663.486 87.192 662.377 87.192C661.545 87.192 660.889 86.9573 660.409 86.488C659.929 86.0187 659.689 85.4053 659.689 84.648C659.689 83.752 660.009 83.064 660.649 82.584C661.299 82.104 662.217 81.864 663.401 81.864H664.697V81.24C664.697 80.6427 664.553 80.216 664.265 79.96C663.977 79.704 663.534 79.576 662.937 79.576C662.318 79.576 661.561 79.7253 660.665 80.024L660.297 78.952C661.342 78.568 662.313 78.376 663.209 78.376C664.201 78.376 664.942 78.6213 665.433 79.112C665.923 79.592 666.169 80.28 666.169 81.176V85.032ZM662.713 86.088C663.555 86.088 664.217 85.6507 664.697 84.776V82.84H663.593C662.035 82.84 661.257 83.416 661.257 84.568C661.257 85.0693 661.379 85.448 661.625 85.704C661.87 85.96 662.233 86.088 662.713 86.088ZM670.716 87.192C670.172 87.192 669.74 87.032 669.42 86.712C669.11 86.3813 668.956 85.9227 668.956 85.336V75.176L670.428 75V85.304C670.428 85.5387 670.465 85.7093 670.54 85.816C670.625 85.9227 670.764 85.976 670.956 85.976C671.158 85.976 671.34 85.944 671.5 85.88L671.884 86.904C671.532 87.096 671.142 87.192 670.716 87.192ZM675.195 78.568V87H673.723V78.568H675.195ZM674.443 74.52C674.752 74.52 675.003 74.616 675.195 74.808C675.387 75 675.483 75.24 675.483 75.528C675.483 75.816 675.387 76.056 675.195 76.248C675.003 76.4293 674.752 76.52 674.443 76.52C674.144 76.52 673.899 76.4293 673.707 76.248C673.515 76.056 673.419 75.816 673.419 75.528C673.419 75.24 673.515 75 673.707 74.808C673.899 74.616 674.144 74.52 674.443 74.52ZM683.183 78.568V79.688L678.783 85.768H683.231L683.055 87H677.119V85.896L681.503 79.816H677.487V78.568H683.183ZM690.669 85.032C690.669 85.3733 690.727 85.6293 690.845 85.8C690.962 85.96 691.138 86.0827 691.373 86.168L691.037 87.192C690.599 87.1387 690.247 87.016 689.981 86.824C689.714 86.632 689.517 86.3333 689.389 85.928C688.823 86.7707 687.986 87.192 686.877 87.192C686.045 87.192 685.389 86.9573 684.909 86.488C684.429 86.0187 684.189 85.4053 684.189 84.648C684.189 83.752 684.509 83.064 685.149 82.584C685.799 82.104 686.717 81.864 687.901 81.864H689.197V81.24C689.197 80.6427 689.053 80.216 688.765 79.96C688.477 79.704 688.034 79.576 687.437 79.576C686.818 79.576 686.061 79.7253 685.165 80.024L684.797 78.952C685.842 78.568 686.813 78.376 687.709 78.376C688.701 78.376 689.442 78.6213 689.933 79.112C690.423 79.592 690.669 80.28 690.669 81.176V85.032ZM687.213 86.088C688.055 86.088 688.717 85.6507 689.197 84.776V82.84H688.093C686.535 82.84 685.757 83.416 685.757 84.568C685.757 85.0693 685.879 85.448 686.125 85.704C686.37 85.96 686.733 86.088 687.213 86.088ZM696.764 78.376C697.265 78.376 697.724 78.4507 698.14 78.6C698.556 78.7387 698.956 78.968 699.34 79.288L698.636 80.216C698.337 80.0027 698.044 79.848 697.756 79.752C697.479 79.6453 697.169 79.592 696.828 79.592C696.145 79.592 695.612 79.864 695.228 80.408C694.855 80.952 694.668 81.7573 694.668 82.824C694.668 83.8907 694.855 84.68 695.228 85.192C695.601 85.6933 696.135 85.944 696.828 85.944C697.159 85.944 697.463 85.896 697.74 85.8C698.017 85.6933 698.327 85.528 698.668 85.304L699.34 86.264C698.572 86.8827 697.713 87.192 696.764 87.192C695.623 87.192 694.721 86.808 694.06 86.04C693.409 85.272 693.084 84.2107 693.084 82.856C693.084 81.96 693.233 81.176 693.532 80.504C693.831 79.832 694.252 79.3093 694.796 78.936C695.351 78.5627 696.007 78.376 696.764 78.376ZM702.773 86.488C702.773 87.2667 702.677 87.8907 702.485 88.36C702.293 88.8293 702.01 89.208 701.637 89.496C701.274 89.7947 700.762 90.0933 700.101 90.392L699.668 89.32C700.085 89.128 700.405 88.936 700.629 88.744C700.853 88.5627 701.018 88.3013 701.125 87.96C701.242 87.6293 701.301 87.1707 701.301 86.584V78.568H702.773V86.488ZM702.037 74.52C702.346 74.52 702.597 74.616 702.789 74.808C702.981 75 703.077 75.24 703.077 75.528C703.077 75.816 702.981 76.056 702.789 76.248C702.597 76.4293 702.346 76.52 702.037 76.52C701.738 76.52 701.493 76.4293 701.301 76.248C701.109 76.056 701.013 75.816 701.013 75.528C701.013 75.24 701.109 75 701.301 74.808C701.493 74.616 701.738 74.52 702.037 74.52ZM711.497 85.032C711.497 85.3733 711.556 85.6293 711.673 85.8C711.79 85.96 711.966 86.0827 712.201 86.168L711.865 87.192C711.428 87.1387 711.076 87.016 710.809 86.824C710.542 86.632 710.345 86.3333 710.217 85.928C709.652 86.7707 708.814 87.192 707.705 87.192C706.873 87.192 706.217 86.9573 705.737 86.488C705.257 86.0187 705.017 85.4053 705.017 84.648C705.017 83.752 705.337 83.064 705.977 82.584C706.628 82.104 707.545 81.864 708.729 81.864H710.025V81.24C710.025 80.6427 709.881 80.216 709.593 79.96C709.305 79.704 708.862 79.576 708.265 79.576C707.646 79.576 706.889 79.7253 705.993 80.024L705.625 78.952C706.67 78.568 707.641 78.376 708.537 78.376C709.529 78.376 710.27 78.6213 710.761 79.112C711.252 79.592 711.497 80.28 711.497 81.176V85.032ZM708.041 86.088C708.884 86.088 709.545 85.6507 710.025 84.776V82.84H708.921C707.364 82.84 706.585 83.416 706.585 84.568C706.585 85.0693 706.708 85.448 706.953 85.704C707.198 85.96 707.561 86.088 708.041 86.088Z" fill="white"/>
</svg>
